<?xml version="1.0" encoding="utf-8"?>
<!-- Generator: Adobe Illustrator 18.1.1, SVG Export Plug-In . SVG Version: 6.00 Build 0)  -->
<svg version="1.1" id="Calque_1" xmlns="http://www.w3.org/2000/svg" xmlns:xlink="http://www.w3.org/1999/xlink" x="0px" y="0px"
	 viewBox="0 0 595.3 841.9" enable-background="new 0 0 595.3 841.9" xml:space="preserve">
<g>
	<g>
		<polygon fill="#FFFFFF" points="256,416 256,402 238.9,410.4 222,418.6 239,426.9 256,435.3 256,423 298,423 298,419.7 298,416.1 
			298,416 		"/>
		<g>
			<circle fill="none" stroke="#FFFFFF" stroke-width="2" stroke-miterlimit="10" cx="297.8" cy="417.3" r="90.1"/>
			<line fill="none" stroke="#FFFFFF" stroke-width="2" stroke-miterlimit="10" x1="298" y1="0" x2="298" y2="843"/>
			<polygon fill="#FFFFFF" points="337,416 337,402 354.6,410.4 371.8,418.6 354.4,426.9 337,435.3 337,423 294,423 294,419.7 
				294,416.1 294,416 			"/>
		</g>
	</g>
	<g>
		<g>
			<line fill="none" stroke="#FFFFFF" stroke-width="3" stroke-miterlimit="10" x1="37" y1="799.5" x2="40" y2="799.5"/>
			
				<line fill="none" stroke="#FFFFFF" stroke-width="3" stroke-miterlimit="10" stroke-dasharray="7,5" x1="45" y1="799.5" x2="236" y2="799.5"/>
			<line fill="none" stroke="#FFFFFF" stroke-width="3" stroke-miterlimit="10" x1="238" y1="799.5" x2="242" y2="799.5"/>
			<g>
				<polygon fill="#FFFFFF" points="46.6,811.3 48.6,809.1 37.8,799.1 48.6,789 46.6,786.8 33.4,799.1 				"/>
			</g>
		</g>
	</g>
	<g>
		<g>
			<line fill="none" stroke="#FFFFFF" stroke-width="3" stroke-miterlimit="10" x1="559" y1="799.5" x2="556" y2="799.5"/>
			
				<line fill="none" stroke="#FFFFFF" stroke-width="3" stroke-miterlimit="10" stroke-dasharray="7,5" x1="551" y1="799.5" x2="360" y2="799.5"/>
			<line fill="none" stroke="#FFFFFF" stroke-width="3" stroke-miterlimit="10" x1="358" y1="799.5" x2="354" y2="799.5"/>
			<g>
				<polygon fill="#FFFFFF" points="549.4,786.8 547.4,789 558.2,799 547.4,809.1 549.4,811.3 562.6,799 				"/>
			</g>
		</g>
	</g>
</g>
</svg>
